<?xml version="1.0" standalone="no"?>
<!DOCTYPE svg PUBLIC "-//W3C//DTD SVG 20010904//EN"
 "http://www.w3.org/TR/2001/REC-SVG-20010904/DTD/svg10.dtd">
<svg version="1.0" xmlns="http://www.w3.org/2000/svg"
 width="260.000000pt" height="260.000000pt" viewBox="0 0 260.000000 260.000000"
 preserveAspectRatio="xMidYMid meet">
<metadata>
Created by potrace 1.14, written by Peter Selinger 2001-2017
</metadata>
<g transform="translate(0.000000,260.000000) scale(0.100000,-0.100000)"
fill="#000000" stroke="none">
<path d="M425 2481 c-38 -9 -92 -28 -120 -42 -67 -33 -156 -122 -187 -189 -78
-166 -78 -478 1 -646 34 -72 108 -157 161 -184 87 -45 308 -100 475 -119 158
-18 226 -50 263 -121 21 -39 23 -55 19 -125 -6 -106 -30 -154 -88 -181 -37
-16 -67 -19 -204 -19 -140 0 -165 2 -200 20 -55 28 -74 67 -82 164 -8 111 -7
111 -198 111 -172 0 -189 -6 -198 -68 -8 -49 9 -203 30 -267 33 -102 115 -199
206 -246 75 -39 182 -59 314 -59 67 0 123 -2 123 -3 0 -5 -94 -224 -126 -295
-31 -68 -31 -100 -1 -47 13 22 51 87 84 145 165 283 581 1003 615 1063 45 79
45 81 -37 155 -80 74 -235 127 -455 156 -253 35 -303 51 -341 112 -19 31 -21
46 -17 137 5 130 26 177 91 202 36 13 73 16 204 13 156 -3 160 -4 195 -30 39
-30 58 -86 58 -172 0 -79 5 -81 199 -81 123 0 173 3 183 13 17 17 22 126 9
210 -18 117 -55 196 -125 266 -120 121 -218 146 -553 145 -180 0 -243 -4 -298
-18z"/>
<path d="M1830 2427 c-51 -83 -410 -709 -410 -717 0 -6 117 -11 305 -12 l305
-3 -156 -230 c-86 -126 -222 -327 -302 -445 -80 -118 -198 -292 -262 -385 -64
-94 -122 -185 -128 -204 -7 -20 -12 -92 -12 -176 0 -125 2 -144 18 -158 17
-15 76 -17 639 -17 610 0 620 0 638 20 16 18 19 39 18 165 0 126 -2 148 -18
165 -18 19 -31 20 -422 20 -221 0 -403 4 -403 9 0 4 8 19 18 32 10 13 48 67
84 119 84 123 247 360 361 525 255 369 312 453 328 490 16 34 19 68 19 225 0
102 -5 192 -10 200 -8 13 -63 15 -375 18 -250 2 -365 6 -365 13 0 10 24 67
128 302 26 59 27 84 2 44z"/>
</g>
</svg>
